<?xml version="1.0" encoding="UTF-8" standalone="no"?>
<!-- Generator: Adobe Illustrator 16.0.0, SVG Export Plug-In . SVG Version: 6.00 Build 0)  -->

<svg
   xmlns:dc="http://purl.org/dc/elements/1.1/"
   xmlns:cc="http://creativecommons.org/ns#"
   xmlns:rdf="http://www.w3.org/1999/02/22-rdf-syntax-ns#"
   xmlns:svg="http://www.w3.org/2000/svg"
   xmlns="http://www.w3.org/2000/svg"
   xmlns:sodipodi="http://sodipodi.sourceforge.net/DTD/sodipodi-0.dtd"
   xmlns:inkscape="http://www.inkscape.org/namespaces/inkscape"
   version="1.1"
   id="Capa_1"
   x="0px"
   y="0px"
   width="533.333px"
   height="533.334px"
   viewBox="0 0 533.333 533.334"
   style="enable-background:new 0 0 533.333 533.334;"
   xml:space="preserve"
   inkscape:version="0.91 r13725"
   sodipodi:docname="hearts.svg"><metadata
     id="metadata3416"><rdf:RDF><cc:Work
         rdf:about=""><dc:format>image/svg+xml</dc:format><dc:type
           rdf:resource="http://purl.org/dc/dcmitype/StillImage" /></cc:Work></rdf:RDF></metadata><defs
     id="defs3414" /><sodipodi:namedview
     pagecolor="#ffffff"
     bordercolor="#666666"
     borderopacity="1"
     objecttolerance="10"
     gridtolerance="10"
     guidetolerance="10"
     inkscape:pageopacity="0"
     inkscape:pageshadow="2"
     inkscape:window-width="1858"
     inkscape:window-height="1058"
     id="namedview3412"
     showgrid="false"
     inkscape:zoom="0.44249946"
     inkscape:cx="-83.61641"
     inkscape:cy="266.66699"
     inkscape:window-x="54"
     inkscape:window-y="-8"
     inkscape:window-maximized="1"
     inkscape:current-layer="g3378" /><g
     id="g3378"><path
       d="M533.333,186.54c0,44.98-19.385,85.432-50.256,113.46h0.256L316.667,466.667C300,483.333,283.333,500,266.667,500   c-16.667,0-33.333-16.667-50-33.333L50,300h0.255C19.384,271.972,0,231.52,0,186.54C0,101.926,68.593,33.333,153.206,33.333   c44.98,0,85.432,19.384,113.46,50.255c28.028-30.871,68.48-50.255,113.46-50.255C464.74,33.333,533.333,101.926,533.333,186.54z"
       id="path3380"
       style="fill:#ff0000;fill-opacity:1" /></g><g
     id="g3382" /><g
     id="g3384" /><g
     id="g3386" /><g
     id="g3388" /><g
     id="g3390" /><g
     id="g3392" /><g
     id="g3394" /><g
     id="g3396" /><g
     id="g3398" /><g
     id="g3400" /><g
     id="g3402" /><g
     id="g3404" /><g
     id="g3406" /><g
     id="g3408" /><g
     id="g3410" /></svg>